<?xml version="1.0" encoding="UTF-8"?>
<!-- Generator: Adobe Illustrator 26.0.2, SVG Export Plug-In . SVG Version: 6.00 Build 0)  -->
<svg version="1.1" id="Layer_1" xmlns="http://www.w3.org/2000/svg" xmlns:xlink="http://www.w3.org/1999/xlink" x="0px" y="0px" viewBox="0 0 309.4 109.4" style="enable-background:new 0 0 309.4 109.4;" xml:space="preserve">
<style type="text/css">
	.st0{fill:url(#SVGID_1_);}
	.st1{fill:url(#SVGID_00000096746782701153068280000017674416234754314889_);stroke:#00ACD6;stroke-width:0.1194;}
	.st2{fill:url(#SVGID_00000018954642845401169080000016352214685526304432_);}
	.st3{fill:url(#SVGID_00000169522258460126208100000002674977318656354466_);stroke:#8581BC;stroke-width:0.1194;}
	.st4{fill:#555554;}
	.st5{fill:url(#SVGID_00000004514809006782832280000006444679668207244223_);}
	.st6{fill:url(#SVGID_00000130623555576589792840000007334500604476550065_);stroke:#EC6E4F;stroke-width:0.1194;}
	.st7{fill:url(#SVGID_00000163788126190268341880000010619240200088350641_);}
	.st8{fill:url(#SVGID_00000052063567178180201380000009534941260787628169_);stroke:#BBCF33;stroke-width:0.1194;}
	.st9{fill:url(#SVGID_00000091722898803080864710000017635487935199899324_);}
	.st10{fill:url(#SVGID_00000128449961785075361200000011588363732741976992_);stroke:#F19065;stroke-width:0.1194;}
	.st11{fill:url(#SVGID_00000030450436250899567610000015422756013847979189_);}
	.st12{fill:url(#SVGID_00000005962961993126877470000000440981810280805051_);stroke:#FCE900;stroke-width:0.1194;}
</style>
<g>
	<g>
		
			<linearGradient id="SVGID_1_" gradientUnits="userSpaceOnUse" x1="201.35" y1="111.9" x2="201.35" y2="80.3908" gradientTransform="matrix(1 0 0 -1 0 112)">
			<stop offset="0.4615" style="stop-color:#009EE2"/>
			<stop offset="0.4909" style="stop-color:#0295D8"/>
			<stop offset="0.644" style="stop-color:#0B68A8"/>
			<stop offset="0.7789" style="stop-color:#124885"/>
			<stop offset="0.8894" style="stop-color:#163470"/>
			<stop offset="0.9615" style="stop-color:#182D68"/>
		</linearGradient>
		<path class="st0" d="M210.3,0.1c3.9,0,7.1,3.1,7.1,7.1v17.4c0,3.9-3.2,7.1-7.1,7.1h-17.9c-3.9,0-7.1-3.1-7.1-7.1V7.2    c0-3.9,3.2-7.1,7.1-7.1C192.4,0.1,210.3,0.1,210.3,0.1z"/>
		
			<linearGradient id="SVGID_00000116231125448671105690000018285599528231794055_" gradientUnits="userSpaceOnUse" x1="201.45" y1="83.1" x2="201.45" y2="108.8535" gradientTransform="matrix(1 0 0 -1 0 112)">
			<stop offset="0.2692" style="stop-color:#35A8E0"/>
			<stop offset="0.4429" style="stop-color:#32A3DC"/>
			<stop offset="0.6607" style="stop-color:#2993D0"/>
			<stop offset="0.9011" style="stop-color:#1A7ABD"/>
			<stop offset="1" style="stop-color:#136DB4"/>
		</linearGradient>
		<path style="fill:url(#SVGID_00000116231125448671105690000018285599528231794055_);stroke:#00ACD6;stroke-width:0.1194;" d="    M214.3,25.8c0,1.7-1.4,3.1-3.1,3.1h-19.5c-1.7,0-3.1-1.4-3.1-3.1V6.3c0-1.7,1.4-3.1,3.1-3.1h19.5c1.7,0,3.1,1.4,3.1,3.1V25.8z"/>
	</g>
	<g>
		
			<linearGradient id="SVGID_00000021838621438064134030000002288423236946872457_" gradientUnits="userSpaceOnUse" x1="160.35" y1="34.1" x2="160.35" y2="2.5895" gradientTransform="matrix(1 0 0 -1 0 112)">
			<stop offset="0" style="stop-color:#8477B4"/>
			<stop offset="0.5" style="stop-color:#6A5BA3"/>
			<stop offset="1" style="stop-color:#4A348A"/>
		</linearGradient>
		<path style="fill:url(#SVGID_00000021838621438064134030000002288423236946872457_);" d="M169.3,77.9c3.9,0,7.1,3.1,7.1,7.1v17.4    c0,3.9-3.1,7.1-7.1,7.1h-17.9c-3.9,0-7.1-3.2-7.1-7.1V85c0-3.9,3.1-7.1,7.1-7.1H169.3z"/>
		
			<linearGradient id="SVGID_00000154417790551474144080000013142863156393961870_" gradientUnits="userSpaceOnUse" x1="160.35" y1="5.5" x2="160.35" y2="31.2563" gradientTransform="matrix(1 0 0 -1 0 112)">
			<stop offset="0" style="stop-color:#8477B4"/>
			<stop offset="0.5" style="stop-color:#6A5BA3"/>
			<stop offset="1" style="stop-color:#4A348A"/>
		</linearGradient>
		<path style="fill:url(#SVGID_00000154417790551474144080000013142863156393961870_);stroke:#8581BC;stroke-width:0.1194;" d="    M173.2,103.4c0,1.7-1.4,3.1-3.1,3.1h-19.5c-1.7,0-3.1-1.4-3.1-3.1V83.9c0-1.7,1.4-3.1,3.1-3.1h19.5c1.7,0,3.1,1.4,3.1,3.1V103.4z"/>
	</g>
	<path class="st4" d="M35,30.6h6.5l-17.9,39H18l-18-39h6.5l14.2,32.6L35,30.6z"/>
	<path class="st4" d="M54.2,29.4V35h-5.6v-5.6H54.2z M48.5,39.3h5.6v30.2h-5.6V39.3z"/>
	<path class="st4" d="M65.1,29.4h5.6v33.4c0,0.6,0.5,1.1,1.1,1.1h5.6v5.6h-5.6c-3.8,0-6.8-3-6.8-6.8V46.1V29.4H65.1z"/>
	<path class="st4" d="M232,39.3v5.6h-16.9c-0.6,0-1.2,0.5-1.2,1.1v23.5h-5.6v-6.8V46.1c0-3.8,3-6.8,6.8-6.8H232z"/>
	<path class="st4" d="M268.3,29.4v40.2h-24c-3.7,0-6.8-3-6.8-6.8V46.1c0-3.8,3-6.8,6.8-6.8h18.4v-9.9H268.3z M261.5,63.9   c0.6,0,1.2-0.5,1.2-1.1V46.1c0-0.6-0.5-1.1-1.2-1.1h-17.2c-0.6,0-1.1,0.5-1.1,1.1v16.7c0,0.6,0.5,1.1,1.1,1.1   C244.3,63.9,261.5,63.9,261.5,63.9z"/>
	<path class="st4" d="M309.4,46.1v11.2h-25.1v5.5c0,0.6,0.5,1.1,1.1,1.1h24v5.6h-24c-3.8,0-6.8-3-6.8-6.8V46.1c0-3.8,3-6.8,6.8-6.8   h17.2C306.4,39.3,309.4,42.3,309.4,46.1z M303.7,51.6v-5.5c0-0.6-0.5-1.1-1.1-1.1h-17.2c-0.6,0-1.1,0.5-1.1,1.1v5.5H303.7z"/>
	<path class="st4" d="M118.1,39.3l-16.7,30.2h-5.6L79.1,39.3h6.5l13,23.9l13-23.9C111.6,39.3,118.1,39.3,118.1,39.3z"/>
	<g>
		
			<linearGradient id="SVGID_00000106851437967292618130000001036856532527559809_" gradientUnits="userSpaceOnUse" x1="119.05" y1="112" x2="119.05" y2="80.4908" gradientTransform="matrix(1 0 0 -1 0 112)">
			<stop offset="0.5" style="stop-color:#E31F16"/>
			<stop offset="0.7692" style="stop-color:#B4110E"/>
			<stop offset="0.8284" style="stop-color:#B0110E"/>
			<stop offset="0.8905" style="stop-color:#A3110E"/>
			<stop offset="0.9536" style="stop-color:#8E110D"/>
			<stop offset="1" style="stop-color:#7A110D"/>
		</linearGradient>
		<path style="fill:url(#SVGID_00000106851437967292618130000001036856532527559809_);" d="M128,0c3.9,0,7.1,3.1,7.1,7.1v17.4    c0,3.9-3.2,7.1-7.1,7.1h-17.9c-3.9,0-7.1-3.1-7.1-7.1V7.1c0-3.9,3.1-7.1,7.1-7.1H128z"/>
		
			<linearGradient id="SVGID_00000152959777605381412710000006414456043104567682_" gradientUnits="userSpaceOnUse" x1="119.25" y1="83.2" x2="119.25" y2="108.9549" gradientTransform="matrix(1 0 0 -1 0 112)">
			<stop offset="0.522" style="stop-color:#E31F16"/>
			<stop offset="0.7802" style="stop-color:#B4110E"/>
			<stop offset="0.8366" style="stop-color:#B0110E"/>
			<stop offset="0.8957" style="stop-color:#A3110E"/>
			<stop offset="0.9558" style="stop-color:#8E110D"/>
			<stop offset="1" style="stop-color:#7A110D"/>
		</linearGradient>
		<path style="fill:url(#SVGID_00000152959777605381412710000006414456043104567682_);stroke:#EC6E4F;stroke-width:0.1194;" d="    M132.1,25.7c0,1.7-1.4,3.1-3.1,3.1h-19.5c-1.7,0-3.1-1.4-3.1-3.1V6.2c0-1.7,1.4-3.1,3.1-3.1H129c1.7,0,3.1,1.4,3.1,3.1V25.7z"/>
	</g>
	<g>
		
			<linearGradient id="SVGID_00000105416417652798473610000005643905635274277268_" gradientUnits="userSpaceOnUse" x1="139.75" y1="73.3" x2="139.75" y2="41.7883" gradientTransform="matrix(1 0 0 -1 0 112)">
			<stop offset="0" style="stop-color:#93C022"/>
			<stop offset="0.127" style="stop-color:#8CBC23"/>
			<stop offset="0.3163" style="stop-color:#77B124"/>
			<stop offset="0.5445" style="stop-color:#569F27"/>
			<stop offset="0.8006" style="stop-color:#29872A"/>
			<stop offset="1" style="stop-color:#00712D"/>
		</linearGradient>
		<path style="fill:url(#SVGID_00000105416417652798473610000005643905635274277268_);" d="M148.7,38.7c3.9,0,7.1,3.1,7.1,7.1v17.4    c0,3.9-3.2,7.1-7.1,7.1h-17.9c-3.9,0-7.1-3.2-7.1-7.1V45.8c0-3.9,3.2-7.1,7.1-7.1H148.7z"/>
		
			<linearGradient id="SVGID_00000040576272250424991290000006899261469074681239_" gradientUnits="userSpaceOnUse" x1="139.75" y1="44.6719" x2="139.75" y2="70.4337" gradientTransform="matrix(1 0 0 -1 0 112)">
			<stop offset="0" style="stop-color:#93C022"/>
			<stop offset="0.358" style="stop-color:#91BF22"/>
			<stop offset="0.5146" style="stop-color:#8ABB23"/>
			<stop offset="0.632" style="stop-color:#7DB424"/>
			<stop offset="0.7299" style="stop-color:#6BAB25"/>
			<stop offset="0.8155" style="stop-color:#549E27"/>
			<stop offset="0.8926" style="stop-color:#378F29"/>
			<stop offset="0.9618" style="stop-color:#167D2B"/>
			<stop offset="1" style="stop-color:#00712D"/>
		</linearGradient>
		<path style="fill:url(#SVGID_00000040576272250424991290000006899261469074681239_);stroke:#BBCF33;stroke-width:0.1194;" d="    M152.6,64.2c0,1.7-1.4,3.1-3.1,3.1H130c-1.7,0-3.1-1.4-3.1-3.1V44.7c0-1.7,1.4-3.1,3.1-3.1h19.5c1.7,0,3.1,1.4,3.1,3.1V64.2z"/>
	</g>
	<g>
		
			<linearGradient id="SVGID_00000015355839385665072140000018094129408034403228_" gradientUnits="userSpaceOnUse" x1="181.25" y1="73.3684" x2="181.25" y2="41.8567" gradientTransform="matrix(1 0 0 -1 0 112)">
			<stop offset="0.5824" style="stop-color:#E85019"/>
			<stop offset="0.6171" style="stop-color:#E04C19"/>
			<stop offset="0.729" style="stop-color:#CB431B"/>
			<stop offset="0.8022" style="stop-color:#C33F1B"/>
			<stop offset="0.8535" style="stop-color:#C03D1F"/>
			<stop offset="0.9072" style="stop-color:#B5352C"/>
			<stop offset="0.9231" style="stop-color:#B13231"/>
		</linearGradient>
		<path style="fill:url(#SVGID_00000015355839385665072140000018094129408034403228_);" d="M190.2,38.6c3.9,0,7.1,3.1,7.1,7.1v17.4    c0,3.9-3.2,7.1-7.1,7.1h-17.9c-3.9,0-7.1-3.2-7.1-7.1V45.7c0-3.9,3.1-7.1,7.1-7.1C172.3,38.6,190.2,38.6,190.2,38.6z"/>
		
			<linearGradient id="SVGID_00000060738942418938986260000015188584440479227011_" gradientUnits="userSpaceOnUse" x1="181.25" y1="44.736" x2="181.25" y2="70.4919" gradientTransform="matrix(1 0 0 -1 0 112)">
			<stop offset="0.5824" style="stop-color:#E85019"/>
			<stop offset="0.6232" style="stop-color:#E04C19"/>
			<stop offset="0.7546" style="stop-color:#CB431B"/>
			<stop offset="0.8407" style="stop-color:#C33F1B"/>
			<stop offset="0.8943" style="stop-color:#C03D1F"/>
			<stop offset="0.9504" style="stop-color:#B5352C"/>
			<stop offset="0.967" style="stop-color:#B13231"/>
		</linearGradient>
		<path style="fill:url(#SVGID_00000060738942418938986260000015188584440479227011_);stroke:#F19065;stroke-width:0.1194;" d="    M194.1,64.1c0,1.7-1.4,3.1-3.1,3.1h-19.5c-1.7,0-3.1-1.4-3.1-3.1V44.6c0-1.7,1.4-3.1,3.1-3.1H191c1.7,0,3.1,1.4,3.1,3.1V64.1z"/>
	</g>
	<g>
		
			<linearGradient id="SVGID_00000044149283535230262340000006580183043061817535_" gradientUnits="userSpaceOnUse" x1="160.25" y1="112" x2="160.25" y2="80.4879" gradientTransform="matrix(1 0 0 -1 0 112)">
			<stop offset="2.747250e-02" style="stop-color:#FFEC00"/>
			<stop offset="0.5275" style="stop-color:#F8B12D"/>
			<stop offset="0.6044" style="stop-color:#E69F25"/>
			<stop offset="0.772" style="stop-color:#C37D14"/>
			<stop offset="0.9099" style="stop-color:#AE680B"/>
			<stop offset="1" style="stop-color:#A66007"/>
		</linearGradient>
		<path style="fill:url(#SVGID_00000044149283535230262340000006580183043061817535_);" d="M169.2,0c3.9,0,7.1,3.1,7.1,7.1v17.4    c0,3.9-3.1,7.1-7.1,7.1h-17.9c-3.9,0-7.1-3.2-7.1-7.1V7.1c0-3.9,3.2-7.1,7.1-7.1H169.2z"/>
		
			<linearGradient id="SVGID_00000087393120861705772930000006600844467721613490_" gradientUnits="userSpaceOnUse" x1="160.25" y1="83.3643" x2="160.25" y2="109.1236" gradientTransform="matrix(1 0 0 -1 0 112)">
			<stop offset="0.5989" style="stop-color:#FFD400"/>
			<stop offset="0.7329" style="stop-color:#EEBF00"/>
			<stop offset="1" style="stop-color:#C48A00"/>
		</linearGradient>
		<path style="fill:url(#SVGID_00000087393120861705772930000006600844467721613490_);stroke:#FCE900;stroke-width:0.1194;" d="    M173.1,25.5c0,1.7-1.4,3.1-3.1,3.1h-19.5c-1.7,0-3.1-1.4-3.1-3.1V6c0-1.7,1.4-3.1,3.1-3.1H170c1.7,0,3.1,1.4,3.1,3.1V25.5z"/>
	</g>
</g>
</svg>