<?xml version="1.0" encoding="UTF-8"?><svg xmlns="http://www.w3.org/2000/svg" width="730" height="180" viewBox="0 0 730 180"><defs><style>.h{fill:#fdc333;}</style></defs><g id="a"/><g id="b"/><g id="c"/><g id="d"/><g id="e"/><g id="f"/><g id="g"><g><g><path class="h" d="M33.66,146.14c2.13,.44,4.17,.9,6.24,1.1,2.05,.19,4.14,.15,6.16-.39-2.94,.37-5.88,.15-8.7-.43-2.28-.47-4.47-1.18-6.56-2.09,.62,.68,1.26,1.36,1.92,2.01,1.3,.38,2.63,.71,3.91,1.13-.67-.62-2.08-.49-2.96-1.33Z"/><path class="h" d="M47.03,148.62c-.71,.03-1.44,.06-2.17,.13-1.44,.15-2.93,.3-4.32,.18-2.08-.18-4.18-.43-6.19-.95,.35,.35,.71,.7,1.07,1.03l.62,.14c.9,.14,1.82,.33,2.73,.39,3.36,.35,6.85,.21,10.4-.73-.72-.12-1.44-.19-2.15-.18Z"/><path class="h" d="M51.58,141.05c.39-.26,.83-.47,1.2-.77-.4,.27-.84,.44-1.26,.67-1.49,.63-3.03,1.2-4.6,1.52-1.58,.31-3.16,.53-4.77,.49,1.6,.21,3.21,.08,4.81-.21,1.59-.31,3.16-.93,4.62-1.69Z"/><path class="h" d="M32.63,144.23c1.73,.37,3.37,.88,5.06,1.23,1.68,.38,3.42,.64,5.18,.47,.9-.05,1.75-.4,2.66-.11,.25,.06,.57-.25,.74-.47,.28-.38,.41-.35,.47,0,.02,.08,.16,.17,.3,.08,1.62-1.2,3.58-1.69,5.46-2.76,.41-.28,.85-.54,1.23-.9-.43,.28-.89,.5-1.31,.75-1.93,.97-3.88,1.69-5.76,1.82-2.01,.16-4.04,.25-6.05,.11-2.01-.14-4.01-.54-5.78-1.33-3.28-1.47-6.5-3.16-9.47-5.26,1.2,1.58,2.47,3.12,3.78,4.62,.82,.38,1.62,.76,2.33,1.27,.31,.22,.77,.38,1.17,.47Z"/><path class="h" d="M60.63,83.36c-.04-1.16-.08-2.34-.53-3.32,0,1.19,.18,2.3,.53,3.32Z"/><path class="h" d="M60.12,84.25c.25,2.07,.49,4.14,.69,6.2,.07-2.16-.06-4.27-.69-6.2Z"/><path class="h" d="M59.81,74.85l-.24,.1c.4,1.99,.78,3.99,1.14,5.99l.21-.11c-.35-2-.73-3.99-1.12-5.98Z"/><path class="h" d="M75.68,138.77c1-2.3,2.18-4.53,2.28-6.77-.75,2.2-1.28,4.48-2.28,6.77Z"/><path class="h" d="M103.22,134.83c.05-1.06,.13-2.13,.15-3.21,.02-.72,.11-1.44-.02-2.18-.04-.18-.08-.32-.18-.38-.08-.04-.18,.11-.16,.21,.14,.57-.15,1-.12,1.55,.07,1.33,.21,2.64,.12,3.98l.21,.03Z"/><path class="h" d="M114.31,41.78c.75-.03,1.46-.06,2.77-.26-3.65,.04-7.03,.21-10.33,.48,.15,.09,.28,.19,.43,.3,2.37-.23,4.76-.41,7.14-.52Z"/><path class="h" d="M106.16,39.59c-.9,.11-1.74,.17-2.54,.21,.25,.1,.51,.22,.76,.37,1.81-.32,3.74-.47,5.68-.61,4.37-.31,8.73-.35,13.5-.44-5.74-.83-11.7-.19-17.4,.47Z"/><path class="h" d="M116.69,50.58c4.6-.3,9.18-.3,13.67,.03-2.41-.2-3.99-.79-5.64-1.33-.83-.27-1.8-.31-2.83-.34-2.07-.07-4.11-.15-6.16-.18,.11,.11,.23,.25,.34,.41,.28,.43,.5,.9,.62,1.41Z"/><path class="h" d="M113.36,44.57c.15,.18,.26,.38,.35,.61,4.57-.61,9.16-.61,13.7-.43,4.12,.16,8.2,.66,12.23,1.45l-1.69-.51,.08-.13c4.12,.76,8.15,1.93,11.81,3.73-3.49-1.88-7.38-3.18-11.38-4.08-4.01-.91-8.14-1.44-12.29-1.72-4.63-.29-9.3-.28-13.96-.05,.39,.31,.77,.69,1.15,1.13Z"/><path class="h" d="M132.58,97.86c2.11-.82,2.04-1.8,2.38-2.66,.28-.72,.66-1.24,1.36-1.65,.71-.39,1.72-.7,3.18-1.06,1.17-.29,2.3-.67,3.35-1.11,.64-.31,1.26-.64,1.75-1.07,.26-.2,.52-.4,.79-.6,.25-.21,.48-.42,.74-.61,.63-.41,1.08-.92,1.63-1.33,.26-.21,.47-.45,.73-.64,.24-.21,.52-.36,.74-.56,.27-.21,.53-.43,.79-.65,.27-.22,.44-.51,.66-.77,.47-.5,.76-1.13,1.12-1.72,.23-.31,.34-.7,.52-1.04l.27-.51c.1-.17,.19-.34,.25-.54,.28-.77,.68-1.47,.89-2.33l.41-1.24c.11-.44,.19-.89,.29-1.34,.09-.46,.22-.9,.28-1.37l.15-1.46c.31-2.69,.38-5.09-.47-7.16-.45-1.04-.67-2.21-1.23-3.15-.48-.8-.96-1.55-1.52-2.31-.57-.74-1.22-1.49-2.01-2.21-1.95-1.79-4.84-3.27-8.1-4.37-3.4-1.16-7.18-1.98-11.1-2.52-3.92-.54-8-.83-12.13-.88-.52,0-1.04,0-1.56,0,.05,.38,.08,.77,.02,1.22-.09,.75-.12,1.49,.29,2.08,.16,.25,.08,.5,.04,.75-.25,1.72-.29,3.54-.64,5.22-.04,.21-.08,.47-.05,.7,.34,3.34-.17,6.6,.11,9.94,.07,.92,.08,1.8,.43,2.66,.27,.66,.12,1.55,.19,2.33,.2,2.5,.57,4.95,.82,7.43,.42,4.06,.94,8.12,.96,12.25,0,.18-.02,.35,0,.52,.34,3.59,.11,7.18,.18,10.82,.02,.9,.03,1.82,.03,2.74,.33-.04,.75-.06,1.29-.06,.79-.02,1.56-.56,1.93-.91,.69-.64,1.17-1.33,.61-2.03-.23-.29,.05-.6,.12-.9,.12-.5,.71-.93,1.33-1.36,.61-.44,1.24-.89,1.46-1.37,.07-.15,.49-.12,.78-.16,1.03-.1,2.04-.22,3.05-.37,.38-.05,1.02-.17,.83-.27-.88-.41,.76-.93,.41-1.41-.47-.67,.61-1.48,.88-2.22,.09-.22,.35-.54,.77-.71Z"/><path class="h" d="M155.57,53.13c2.75,2.77,4.93,6.08,5.92,9.78,.5,1.82,.69,3.72,.77,5.62,.09,1.92,.14,3.83,.31,5.85,.32-2.83,.41-5.58,.14-8.37-.05-.7-.2-1.38-.3-2.09-.17-.67-.28-1.39-.51-2.07-.39-1.38-.98-2.72-1.73-4.01,0,.67,.61,1.52,.54,2.03-.64-1.28-1.35-2.5-2.18-3.65-.84-1.13-1.83-2.18-2.96-3.09Z"/><path class="h" d="M173.6,67.27h0c-.09-.25-.19-.49-.28-.73,.15,1.12,.25,2.24,.34,3.36,.02-.87,0-1.74-.06-2.63Z"/><path class="h" d="M170.62,88.68c-1.3,3.42-3.27,6.46-5.45,9.53,3.55-3.99,6.05-8.85,7.51-13.78,.32-1.23,.67-2.48,.93-3.73,.21-1.24,.41-2.48,.59-3.74,.19-2.37,.38-4.73,.25-7.25,0-.02,0-.02-.02-.04,0,.54-.04,1.06-.06,1.59-.03,.61-.05,1.22-.14,1.8l-.43,3.52c-.06,.5-.25,1.48-.36,1.23-.37-.8-.51,.54-.6,1.21-.15,1.1-.41,1.96-.72,2.95-.4,1.4-.78,2.79-1.38,4.16-.28,.69-.54,1.37-.84,2.05-.34,.67-.68,1.35-1.03,2.03-.18,.34-.34,.67-.52,1.02-.2,.33-.4,.66-.61,1-.41,.66-.82,1.33-1.23,2.01-.97,1.28-1.85,2.67-2.99,3.92,3.08-2.74,5.29-6.41,7.07-9.47Z"/><path class="h" d="M177.18,84.57c-.1,.38-.2,.76-.31,1.13-.74,2.16-1.54,4.26-2.59,6.38-1.38,3.06-3.27,5.77-5.27,8.85-.49,.7-1.27,1.69-2.17,2.65-.94,.9-1.99,1.79-2.92,2.37-.51,.29-.91,.47-1.33,1.03-.12,.15-.34,.42-.45,.5-.33,.21-.65,.43-.96,.65l-.95,.63c-.63,.43-1.25,.87-1.87,1.33-.63,.42-1.27,.82-1.93,1.22-.66,.4-1.34,.77-2.06,1.06-.61,.25-1.25,.51-1.89,.78-.64,.26-1.29,.47-1.95,.72-1.32,.51-2.64,.93-3.95,1.43-.21,.08-.48,.14-.68,.16-3.43,.51-7.09,1.44-10.53,1.72-3.37,.27-6.64,1.13-9.92,.69-2.06-.28-4.24-.54-6.61-.8h-.02c-.08,1.11-.19,2.22-.14,3.36,.04,.76-.3,1.38-.46,2.07-.23,.98-.62,1.92-.22,3.09,.11,.33-.07,.68-.19,.91-.47,.95-.5,2.22-.75,3.32-.02,.12-.04,.34,0,.41,.54,.96-.12,1.2-.29,1.98-.09-1.23,.2-2.16,.1-3.19-.28,.9-.35,1.95-.71,2.8-.71,1.71-.89,3.72-.97,5.84-.05,1.46-.07,2.93-.18,4.37-.17,2.15-.15,4.31-.08,6.45,.06,1.91-.15,3.75-.18,5.63,0,.36-.06,.85-.32,.81-.22-.04-.14-.5-.17-.78-.21-2.11-.31-4.25-.52-6.37-.18-1.84-.54-3.49-.97-5.16-.06-.26-.11-.57-.29-.57-.18,0-.3,.23-.39,.53-.22,.74-.38,1.52-.36,2.39-.16-.83,.09-1.72-.14-2.5-.42-1.43-.3-3.04-.58-4.51-.08-.44,.02-.97,.02-1.46-.02-1.33,.09-2.67-.11-4-.02-.12-.07-.24-.13-.43-.17,.47-.46,.81-.08,1.37,.08,.11-.02,.31-.05,.47-.09,.47-.25,.95,.08,1.39,.13,.18,.03,.33-.08,.46-.16,.18-.21,.46-.11,.79,.22,.72,.2,.67-.12,1.04-.13,.15-.08,.6,0,.91,.33-.38,.11,.29,.22,.38,.19,.16,.22,.44,.08,.72,.61,.94-.2,1.38-.21,2.11,0,.27-.04,.54,0,.8,0,.12,.08-.51,.17-.05,.05,.21,.02,.47,.02,.71,0,.1,.02,.26-.02,.3-.78,.92-.22,2.61-.65,3.75-.23,.6-.18,1.65-.85,1.46-.08-.02-.28,.31-.27,.46,.03,.8-.4,.98-.61,1.41-.31,.64-.18-.38-.39-.44-.2,.35-.15,1.39-.71,.95-.02,0-.08,.1-.08,.11,.28,.67-.46,1.3,0,2.04,.04,.06,.54,1.31-.28,1.24-.29-.03-.11,.47-.13,.72-.02,.21-.03,.44-.18,.4-.12-.03-.11-.23-.11-.41,0-.72-.06-1.45,0-2.14,.05-.73-.28-.7-.46-.81-.27-.16-.38,.28-.39,.66,0,.64,.05,1.29,.08,1.94,.02,.4,.09,.82-.32,.71-.26-.07-.42,.4-.5,.86-.18,1.06-.38,2.12-.31,3.29,.02,.41,.1,1.06-.25,1.05-.34-.02-.55-.7-.46-1.17,.29-1.43-.16-2.87,.02-4.3,.1-.77,.24-1.62,.2-2.32-.05-.84,.29-1.68-.05-2.5-.23-.54-.05-1.22-.06-1.78,0-.71-.11-1.41-.17-2.08-.04-.46,.32-.84,.03-1.26,.44-.86-.37-1.61-.11-2.47,.08-.26-.09-.2-.18-.19-.15,.02-.28-.06-.27-.38,0-.18,.06-.41,.14-.54,.16-.26,.18-.27,.07-.56-.09-.26-.33-.54,.08-.69,.19-.08-.05-.26-.05-.41-.02-.42-.56-.79-.06-1.27,.02-.02,.05-.1,.04-.11-.47-1.06-.02-2.28-.27-3.67-.18,1.42-.08,2.61-.13,3.78-.11,2.61-.21,5.22-.43,7.81-.21,2.5-.18,5.06-.28,7.59-.03,.81-.06,1.64-.3,2.36-.09,.27-.2,.52-.39,.54-.23,0-.15-.44-.26-.59-.31-.42-.46-.84-.16-1.44,.04-.08,0-.38-.06-.46-.13-.16-.21,.08-.28,.21-.13,.25-.11,.57-.08,.87,.06,.81-.08,1.56-.28,2.24-.21,.68-.5,1.26-.39,2.14,.03,.26-.05,.56-.25,.56-.23,0-.22-.33-.21-.59,.02-.77-.08-1.49-.38-2.18-.03,.3-.06,.58-.07,.68-.44-2.95-.29-6.12-.37-9.51-.2,.78-.08,1.36-.05,1.89,.08,1.4-.02,2.83-.14,4.13-.11,1.22-.14,2.28,.02,3.46,.08,.53-.15,.52-.36,1.07-.17,.45-.4,.64-.6,.95-.1,.16,.07,.99-.34,.37-.05-.08-.13,.25-.11,.38,.07,.64-.08,1.2-.15,1.78-.02,.21,.02,.35-.19,.43-.23,.07-.21,.26-.42-.26-.16,.11,.02,.46-.16,.61,0-.28-.02-.54-.02-.81-.21,.07-.02,.46-.22,.56,0-.5-.02-.97-.03-1.49-.34,.25-.15,.82-.28,1.16-.57-1.09-.48-2.57-.83-3.78-.18-.63-.23-1.31-.23-1.99,0-2.53-.16-5-.61-7.46-.24-1.27-.31-2.66-.31-4.03,0-.77-.08-1.47-.31-2.21-.18-.62-.11-1.51-.08-2.27,.08-1.91-.38-3.72-.27-5.75-.25,.36-.1,.74-.22,.97-.11-.89,.09-1.75,.04-2.63-.31-5.15-.17-10.3-.26-15.45-.07-3.27-.17-6.64,.06-9.84,0-.07,.02-.15,0-.2-.34-.94-.18-1.99-.18-2.95,0-5.98-.44-11.99-.95-17.99-.38-4.39-.69-8.79-1.01-13.2-.2-2.8-.78-5.48-1.17-8.21l-.07-.51q-.18-1.3-.78-.54c-.13-.43,.18-.52,.17-.93-.34,.16-.67,.31-1.17,.55,.31-.67,.53-1.16,.77-1.6,.47-.89,.47-.97-.11-1.69-.05-.06-.17,.05-.18-.14,0-.05,.07-.11,.1-.18,.24-.56,.1-1.05-.15-1.52l-.89-1.62c.17-.32,.28,.16,.44,.05-.09-.45-.18-.87-.28-1.28-.07-.29-.18-.54-.34-.3-.09,.13-.11,.34-.24,.06-.09-.19-.11-.32,0-.51,.15-.27,.28-.61,.43-.88,.12-.22,.28-.51,.19-.77-.28-.88,.15-1.17,.31-1.73,.25-.86,.44-1.82,.54-2.8,.19-1.95,.83-3.42,1.47-4.89,.25-.58,.44-1.1,.36-1.88-.1-1.06,.18-1.68,.7-2.11,1-.83,2.06-1.13,3.2-1.17,1.46-.05,2.9-.2,4.35-.33-.18-.16-.25-.38-.39-.56-.74-.97,1.37-1.24,3.17-1.55,5.88-1,11.8-1.81,17.83-2.16,6.03-.35,12.18-.26,18.38,.75,4.22,.71,8.5,1.68,12.76,3.27,4.24,1.6,8.53,3.85,12.27,7.14,.82,.71,1.62,1.45,2.39,2.21-.29-.51-.58-1.01-.88-1.52-.28-.24-.57-.47-.86-.68-1.45-1.16-2.98-2.12-4.56-3.18-4.03-2.68-8.35-4.4-12.62-5.62-4.27-1.21-8.53-1.92-12.72-2.34-5.35-.55-10.62-.71-15.83-.63-4.14,.08-8.26,.48-12.34,.99-1.13,.15-2.27,.3-3.42,.38,2.04-.63,4.29-.93,6.44-1.22,6-.81,12.07-.97,18.24-.88,6.81,.15,13.82,.68,21,2.67-4.83-1.47-9.61-2.27-14.31-2.72,4.49,.44,9.04,.67,13.71,1.95-6.22-1.91-12.39-2.53-18.36-2.94l-.16,.2,1.88,.41-.05,.13c-2.43-.15-4.83-.2-7.23-.18-6.72,.04-13.31,.6-19.83,1.51-1.95,.27-3.84,.52-5.86,.34,4.75-.59,8.98-1.46,13.29-1.82,2.9-.25,5.76-.18,8.74-.45,.45-.04,1.21,.04,1.27-.2,.05-.19-.39-.29-1.1-.32-4.57-.16-9.22,.48-13.72,.89h0c-.11-.27,.49-.35,1.09-.44,1.59-.25,3.19-.51,4.8-.66,3.52-.32,7.02-1.1,10.68-.75,.64,.05,1.68,.05,2.17-.13,1.56-.58,3.55-.38,5.51-.28,4.7,.23,9.5,.74,14.42,1.85,1.13,.26,2.29,.54,3.18,1.03,.49,.26,1.16,.51,1.83,.63,2.75,.54,5.59,1.54,8.35,2.97-3.33-4.39-7.08-8.46-11.28-11.99-3.29-2.78-6.89-5.09-10.72-6.81-3.81-1.72-7.78-2.92-11.8-3.39-1.44-.21-2.94-.28-4.4-.45-1.49-.14-2.98-.28-4.46-.54-2.99-.43-5.91-1.27-8.95-2.9-1.56-.89-4-.6-3.62,.65,.82,3.02-2.44,3.3-4.68,4.52-1.35,.65-3.29,1.94-2.6,2.74,.79,.95,1.08,1.83,1.07,2.66,0,.43-.08,.84-.22,1.23-1.12-.05-2.24-.08-3.38-.08-11.5,0-22.27,3.05-31.59,8.37,.66-.57,1.46-1.03,2.27-1.45,1.27-.72,2.54-1.37,3.29-2.66-.99-.37-1.91-.27-2.78,.03-.85,.33-1.66,.85-2.49,1.29-3,1.69-5.93,3.48-8.75,5.45-2.81,1.98-5.45,4.21-7.87,6.64-3.29,3.34-6.76,6.81-9.45,10.89-2.69,4.04-4.51,8.74-4.34,13.67-1.26-1.13-1.36-2.59-1.03-4.14,.15-.78,.49-1.54,.81-2.31,.34-.77,.69-1.52,1.04-2.21,2.34-4.92,5.22-9.54,8.52-13.85,3.29-4.33,6.88-8.48,10.81-12.62,3.13-3.32,6.92-6.34,11.19-8.76,4.27-2.42,8.99-4.25,13.87-5.32,5.39-1.19,10.85-2.58,16.49-2.99-4.86-.74-9.74-1.02-14.55-1.2-4.82-.18-9.56-.26-14.38-.64,.77-.97,1.81-1.18,2.96-1.39,.57-.11,1.19-.21,1.82-.38,.65-.15,1.33-.38,2.03-.77-4.31-1.84-8.87-.73-13.08,2.21-.89,.59-1.65,1.31-2.47,1.96-.81,.67-1.71,1.24-2.8,1.72-8.24,3.4-15.72,8.79-21.96,15.37-6.18,6.63-11.18,14.43-14.62,22.86-2.14,5.18-4.14,10.4-5.64,15.82-1.49,5.41-2.44,11.02-2.42,16.69,0,6.33,.73,12.66,2.15,18.84,1.44,6.17,3.57,12.16,6.3,17.85,2.44,5.12,5.39,9.97,8.78,14.5,2.41,1.54,4.9,2.89,7.48,3.94,.42,.19,.83,.42,1.13-.08,.37-.65,1.14-.05,1.6,.1,2.46,.91,5.03,1.37,7.58,1.38,1.98,.02,3.96-.29,5.85-.93-4.27,1.23-8.7,.63-12.74-1.03,2.59,.72,5.18,1.16,7.75,1.1,2.54-.1,5.12-.76,7.32-2.08,.64-.44,1.25-.91,1.75-1.55-.67,.59-1.51,.5-2.21,.73-.07,.02-.14,.04-.21,.06-3.18,1.22-6.5,1.47-9.81,.9,1.22,.09,2.44,0,3.56-.25,.59-.08,1.13-.27,1.7-.37,.55-.13,1.11-.27,1.69-.36-2.2,.38-4.42,.32-6.6-.25,.31-.47,.65-.33,.97-.28,1.33,.16,2.64,.15,3.96,0,1.29-.18,2.61-.58,3.83-1.06,.59-.25,1.15-.51,1.74-.93,1.67-1.18,3.55-3.55,4.4-6.45,.58-1.93,1.35-3.81,2-5.82,.51-1.59,1.36-3.09,1.59-4.88,.1-.67,.31-1.34,.32-2.06,.02-.93,.28-1.46,.94-2.47,.08-.12,.09-.35,.11-.54,.82-6.05,1.15-12.29,.92-18.52,0-.28-.07-.56-.16-.83,0,.8,.02,1.61-.32,2.3-.26,.54-.1,1.03,0,1.52,.12,.69-.18,1.31-.47,1.42-.48,.18-.28-.65-.3-1.03-.15-5.1-.44-10.23-.89-15.37-.1-1.16-.19-2.28,.18-3.42,.18-.57-.69-3.08-.96-3.84-.37-1.03-.54-2.24-.8-3.36-.14-.63-.28-1.67-.26-1.88,.31-2.31-.81-3.98-1.02-6.02-.03-.28-.08-.55-.15-1.04,.72,1.04,1.13,2.18,1.56,3.39,.47-.94-.13-1.59-.25-2.34-.14-.86-.34-1.69-.43-2.64,.14,.25,.27,.51,.46,.86-.16-2.38-1.19-4.37-.83-7.21,.48,1.6,1.45,1.98,1.64,3.49,.28-.15,.02-.7,.35-.77,.13,.46,.28,.98,.54,1.87-.07-1.17,.38-1.61,.46-2.73,.44,1.24,.77,2.17,1.14,3.24,.21-1-.36-1.78-.13-2.7,.43,.79,.34,1.94,.89,2.6-.33-1.32-.32-2.69-.51-4.01-.15-1.07,.22-1.6,.86-1.67,1.06-.11,1.55,.72,1.82,2.28,.09,.56,.3,1.08,.54,1.61-.49-1.56-.12-2.96,.08-4.4,.28,.25,.32,1.3,.87,.84,.57-.47,.26-1.21,.16-1.83-.22-1.33-.5-2.64-.59-4.01-.05-.74,.05-1.2,.54-1.14,.58,.07,1.16-.09,1.73-.08,.67,0,.76,.54,1.02,1.41,.05-1.39,.54-1.6,1.17-1.85,.35-.14,.4-.16,.65,.31-.29-2.24-.61-4.48-.94-6.72,1.23,2.05,1.33,4.85,2.26,7.51-.44-3.49-1.23-6.51-1.46-9.75,.57,1.17,.44,2.63,1.02,3.74-.27-1.92-.54-3.83-.85-5.74,1.27,2.63,1.69,5.81,2.46,8.73l.21-.08c-.31-1.94-.64-3.88-.98-5.84,.31,.02,.29,.57,.56,.71-.26-1.8-.37-3.49,.41-4.85,1.44,4.69,1.99,9.64,3,14.42,.18-.79-.41-1.52,0-2.34,.6,2.39,.91,4.96,2.07,6.78,.02-1.46,.5-2.86,.21-4.46-.11-.6,.18-.57,.4-.71,.33-.2,.35,.21,.46,.51,.29,.84,.23,1.96,.86,2.72,.15-1.81-.18-3.42-.46-5.06,.5-.08,.63,.44,.71,1.21,.11-.96-.3-1.77,.05-2.47,.35,.52,.53,1.16,.66,1.91l1.39,8.4c.26,1.64,1.2,2.91,1.09,4.71-.18,2.73,.28,5.32,.66,7.91,.54,3.69,.84,7.45,.98,11.23,.16,4.27,.11,8.58,.34,12.88,.25-1.08,.52-4.98,.42-5.98-.15-1.57-.04-3.09,.05-4.7,.11-2.03-.14-4.12-.32-6.16-.46-5.45-1.13-10.83-1.93-16.16-.25-1.59-.36-3.21-.54-4.81-.05-.47-.12-.97,.19-1.26,.21,.18,.09,.53,.14,.8,.05,.34-.11,1.15,.41,.5,.12-.14,.44,1.07,.27,1.35-.77,1.24-.26,2.6-.1,3.91,.32,2.51,1.17,4.76,1.35,7.37,.67,10.29,1.24,20.64,.76,31.31-.4,8.29-1.16,16.71-3.14,25.58-.2,.82-.47,1.59-.7,2.41,1.39-5.58,2.07-10.95,2.62-16.2,.59-5.55,1.16-11.04,.83-16.36l-.25,.03c-.05,4.03-.15,8.1-.47,12.22-.37,4.63-.97,9.32-1.85,14.13-.04,.23-.1,.46-.17,.68-.11,.37-.21,.9-.5,.8-.33-.12-.02-.62,0-.97,.02-.13-.03-.25-.08-.61-.32,1.19-.79,2.18-.11,2.7,.39,.31,.05,.77-.07,1.23-.44,.14,.05-1.02-.46-.87-.38,2.19-.51,4.37-.84,6.64-.31,2.25-.82,4.6-1.98,7.03,.76-2.6,1.31-5.11,1.72-7.54-.73,2.59-1.49,5.24-2.49,8.01-1.01,2.75-2.25,5.62-4.09,8.58,1.52-2.57,2.54-5.05,3.35-7.43,.8-2.39,1.42-4.7,1.97-6.96-.81,2.26-1.81,4.54-3,6.86-1.2,2.31-2.57,4.67-4.28,7.1,.67-1.01,1.35-2.05,1.92-3.03,.47-.77,.57-1.42,.65-2.05,.07-.64,.18-1.26,.54-2-.08-.04-.14-.15-.24-.11-.25,.08-.39,.42-.44,.71-.14,1.14-.65,2.05-1.33,2.93-.64,.86-1.47,1.68-2.11,2.65,.47-.71,.77-1.39,1.01-2.01,.21-.62,.35-1.2,.55-1.72-1.62,1.91-3.36,4.01-5.47,6.14-1.06,1.07-2.21,2.13-3.51,3.18-.65,.52-1.36,1-2.05,1.5-.7,.46-1.44,.9-2.17,1.33l-.39,.2c-3.77,2.01-7.89,3.19-11.96,3.61h-.04c1.27,.84,2.56,1.65,3.87,2.43,.76-.15,1.52-.31,2.26-.51,.9-.24,1.82-.44,2.7-.75,.87-.3,1.78-.56,2.64-.9,.87-.34,1.75-.69,2.64-1.03-.92,.47-1.77,.88-2.63,1.28-.87,.39-1.78,.7-2.67,1.03-.89,.33-1.82,.54-2.72,.78-.58,.16-1.16,.28-1.75,.39,3.44,2,7.02,3.75,10.72,5.22,8.37,3.4,17.34,5.33,26.32,5.91,8.05,.44,16.2-.34,24.09-2.3,3.95-.97,7.83-2.18,11.61-3.68,1.91-.7,3.75-1.56,5.62-2.37,1.83-.88,3.68-1.74,5.47-2.73,7.54-3.93,14.93-9.24,20.08-15.74,3.36-4.24,6.56-8.61,9.28-13.25,2.72-4.63,4.94-9.54,6.28-14.63,.47-1.6,.93-3.08,1.58-4.46,.61-1.39,1.23-2.72,1.9-4.04,.63-1.33,1.22-2.65,1.75-4.02,.49-1.38,.86-2.81,1.06-4.32,.59-5.22,.82-10.46,.5-15.64ZM90.72,34.91c.78-.37,1.92-.68,2.86-.57,1.52,.17,3.13,.08,5.39-.33,2.11-.38,4.47-.67,6.47-.54-1.74,.42-3.72,.86-5.32,1.07-3.01,.41-6.3,1.25-9.03,1.02-.42-.03-.67-.12-.76-.24-.04-.13,.16-.3,.39-.41Zm-34.17,32.51c.12,.09,.15,.52,.21,.8,.15,.59-.38,.15-.38,.67,0,.28-.17-.06-.18-.14l-1.39-6.07,.34-.18c.24,1,.46,2.01,.72,2.99,.18,.67,.16,1.53,.68,1.94Z"/></g><g><path class="h" d="M245.2,46.57c-3.06-.88-5.28-1.96-6.67-3.24s-2.09-2.86-2.09-4.74c0-2.13,.85-3.89,2.55-5.28,1.7-1.39,3.91-2.09,6.63-2.09,1.86,0,3.51,.36,4.96,1.08,1.45,.72,2.58,1.71,3.38,2.97s1.2,2.64,1.2,4.14h-3.58c0-1.64-.52-2.93-1.56-3.86s-2.5-1.41-4.4-1.41c-1.76,0-3.13,.39-4.11,1.16-.98,.78-1.48,1.85-1.48,3.22,0,1.1,.47,2.04,1.4,2.8,.93,.76,2.52,1.46,4.77,2.09,2.25,.63,4,1.33,5.27,2.09,1.27,.76,2.21,1.65,2.82,2.66,.61,1.02,.92,2.21,.92,3.58,0,2.19-.85,3.94-2.56,5.26s-3.99,1.98-6.85,1.98c-1.86,0-3.59-.36-5.2-1.07-1.61-.71-2.85-1.68-3.72-2.92-.87-1.24-1.31-2.64-1.31-4.21h3.58c0,1.63,.6,2.92,1.81,3.87s2.82,1.42,4.83,1.42c1.88,0,3.32-.38,4.32-1.15,1-.77,1.5-1.81,1.5-3.13s-.46-2.35-1.39-3.07-2.61-1.44-5.05-2.14Z"/><path class="h" d="M278.45,34.5h-8.68v24.1h-3.54v-24.1h-8.67v-2.91h20.89v2.91Z"/><path class="h" d="M297.73,46.12h-11.71v9.57h13.6v2.91h-17.16V31.59h16.98v2.91h-13.42v8.7h11.71v2.91Z"/><path class="h" d="M304.06,58.61V31.59h7.63c2.35,0,4.43,.52,6.23,1.56,1.81,1.04,3.2,2.52,4.18,4.43,.98,1.92,1.48,4.12,1.49,6.61v1.73c0,2.55-.49,4.78-1.48,6.7-.98,1.92-2.39,3.39-4.21,4.42-1.82,1.03-3.95,1.55-6.37,1.58h-7.48Zm3.56-24.1v21.19h3.75c2.75,0,4.88-.85,6.41-2.56,1.53-1.71,2.29-4.14,2.29-7.3v-1.58c0-3.07-.72-5.46-2.16-7.16-1.44-1.7-3.49-2.57-6.13-2.59h-4.16Z"/><path class="h" d="M344.25,46.12h-11.71v9.57h13.6v2.91h-17.16V31.59h16.98v2.91h-13.42v8.7h11.71v2.91Z"/><path class="h" d="M354.16,55.69h12.8v2.91h-16.38V31.59h3.58v24.1Z"/><path class="h" d="M374.84,58.61h-3.56V31.59h3.56v27.02Z"/><path class="h" d="M392.67,31.59h3.58v19.13c0,2.59-.78,4.61-2.33,6.07-1.55,1.46-3.62,2.19-6.21,2.19s-4.78-.69-6.27-2.06c-1.5-1.37-2.25-3.3-2.25-5.77h3.56c0,1.55,.42,2.75,1.27,3.62,.85,.87,2.08,1.3,3.68,1.3,1.47,0,2.66-.46,3.57-1.39s1.37-2.23,1.38-3.9V31.59Z"/><path class="h" d="M409.19,46.05l-3.3,3.43v9.13h-3.56V31.59h3.56v13.36l12-13.36h4.3l-10.63,11.93,11.47,15.09h-4.27l-9.57-12.56Z"/><path class="h" d="M441.42,46.12h-11.71v9.57h13.6v2.91h-17.16V31.59h16.98v2.91h-13.42v8.7h11.71v2.91Z"/><path class="h" d="M472.07,51.54h-11.32l-2.54,7.07h-3.67l10.32-27.02h3.12l10.33,27.02h-3.66l-2.58-7.07Zm-10.24-2.91h9.18l-4.6-12.64-4.58,12.64Z"/><path class="h" d="M501.61,50.04c-.33,2.86-1.39,5.06-3.16,6.61-1.77,1.55-4.13,2.33-7.08,2.33-3.19,0-5.75-1.14-7.67-3.43-1.92-2.29-2.89-5.35-2.89-9.18v-2.6c0-2.51,.45-4.72,1.34-6.62,.9-1.9,2.17-3.37,3.81-4.39,1.64-1.02,3.55-1.53,5.71-1.53,2.87,0,5.17,.8,6.9,2.4,1.73,1.6,2.74,3.82,3.02,6.65h-3.58c-.31-2.16-.98-3.72-2.01-4.69-1.03-.97-2.48-1.45-4.33-1.45-2.28,0-4.06,.84-5.35,2.53-1.29,1.68-1.94,4.08-1.94,7.19v2.62c0,2.93,.61,5.27,1.84,7,1.22,1.73,2.94,2.6,5.14,2.6,1.98,0,3.5-.45,4.55-1.34,1.06-.9,1.76-2.46,2.11-4.68h3.58Z"/><path class="h" d="M521.39,51.54h-11.32l-2.54,7.07h-3.67l10.32-27.02h3.12l10.33,27.02h-3.66l-2.58-7.07Zm-10.24-2.91h9.18l-4.6-12.64-4.58,12.64Z"/><path class="h" d="M531.26,58.61V31.59h7.63c2.35,0,4.43,.52,6.23,1.56,1.81,1.04,3.2,2.52,4.18,4.43,.98,1.92,1.48,4.12,1.49,6.61v1.73c0,2.55-.49,4.78-1.47,6.7-.98,1.92-2.39,3.39-4.21,4.42-1.82,1.03-3.95,1.55-6.37,1.58h-7.48Zm3.56-24.1v21.19h3.75c2.75,0,4.88-.85,6.41-2.56,1.53-1.71,2.29-4.14,2.29-7.3v-1.58c0-3.07-.72-5.46-2.16-7.16-1.44-1.7-3.49-2.57-6.13-2.59h-4.16Z"/><path class="h" d="M571.45,46.12h-11.71v9.57h13.6v2.91h-17.16V31.59h16.98v2.91h-13.42v8.7h11.71v2.91Z"/><path class="h" d="M582.38,31.59l8.83,22.04,8.83-22.04h4.62v27.02h-3.56v-10.52l.33-11.36-8.87,21.88h-2.73l-8.85-21.82,.35,11.3v10.52h-3.56V31.59h4.6Z"/><path class="h" d="M614.77,58.61h-3.56V31.59h3.56v27.02Z"/><path class="h" d="M636.56,46.12h-11.71v9.57h13.6v2.91h-17.16V31.59h16.98v2.91h-13.42v8.7h11.71v2.91Z"/><path class="h" d="M246.19,99.48l7.72-22.28h3.9l-10.02,27.02h-3.15l-10-27.02h3.88l7.68,22.28Z"/><path class="h" d="M281.96,91.57c0,2.65-.45,4.96-1.34,6.93s-2.15,3.48-3.79,4.52-3.54,1.56-5.71,1.56-4.01-.52-5.66-1.57c-1.65-1.04-2.92-2.54-3.83-4.47s-1.38-4.18-1.4-6.73v-1.95c0-2.6,.45-4.89,1.35-6.88,.9-1.99,2.18-3.52,3.83-4.57,1.65-1.06,3.54-1.59,5.67-1.59s4.07,.52,5.72,1.57,2.92,2.56,3.81,4.54c.89,1.99,1.34,4.3,1.34,6.93v1.71Zm-3.54-1.74c0-3.2-.64-5.66-1.93-7.38-1.29-1.71-3.09-2.57-5.4-2.57s-4.02,.86-5.32,2.57c-1.29,1.71-1.96,4.09-1.99,7.13v1.99c0,3.1,.65,5.54,1.96,7.32,1.3,1.78,3.1,2.66,5.39,2.66s4.08-.84,5.34-2.51c1.26-1.68,1.91-4.08,1.95-7.21v-2Z"/><path class="h" d="M308.08,91.57c0,2.65-.45,4.96-1.34,6.93s-2.15,3.48-3.79,4.52-3.54,1.56-5.71,1.56-4.01-.52-5.66-1.57c-1.65-1.04-2.92-2.54-3.83-4.47s-1.38-4.18-1.4-6.73v-1.95c0-2.6,.45-4.89,1.35-6.88,.9-1.99,2.18-3.52,3.83-4.57,1.65-1.06,3.54-1.59,5.67-1.59s4.07,.52,5.72,1.57,2.92,2.56,3.81,4.54c.89,1.99,1.34,4.3,1.34,6.93v1.71Zm-3.54-1.74c0-3.2-.64-5.66-1.93-7.38-1.29-1.71-3.09-2.57-5.4-2.57s-4.02,.86-5.32,2.57c-1.29,1.71-1.96,4.09-1.99,7.13v1.99c0,3.1,.65,5.54,1.96,7.32,1.3,1.78,3.1,2.66,5.39,2.66s4.08-.84,5.34-2.51c1.26-1.68,1.91-4.08,1.95-7.21v-2Z"/><path class="h" d="M323.34,93.28h-6.35v10.93h-3.58v-27.02h8.94c3.04,0,5.38,.69,7.02,2.08,1.64,1.39,2.46,3.4,2.46,6.05,0,1.68-.45,3.15-1.36,4.4s-2.17,2.18-3.79,2.8l6.35,11.47v.22h-3.82l-5.86-10.93Zm-6.35-2.91h5.47c1.77,0,3.18-.46,4.22-1.38,1.04-.92,1.57-2.14,1.57-3.68,0-1.67-.5-2.96-1.49-3.85-1-.89-2.43-1.34-4.31-1.36h-5.46v10.26Z"/><path class="h" d="M346.23,104.21v-27.02h8.83c2.93,0,5.14,.61,6.61,1.82,1.48,1.21,2.22,3.01,2.22,5.38,0,1.26-.36,2.38-1.08,3.35-.72,.97-1.69,1.72-2.93,2.25,1.46,.41,2.61,1.18,3.46,2.33,.85,1.14,1.27,2.51,1.27,4.09,0,2.42-.79,4.33-2.36,5.71-1.57,1.39-3.79,2.08-6.66,2.08h-9.37Zm3.56-15.49h5.38c1.56,0,2.8-.39,3.74-1.17,.93-.78,1.4-1.84,1.4-3.18,0-1.49-.43-2.57-1.3-3.25-.87-.68-2.18-1.01-3.95-1.01h-5.27v8.61Zm0,2.86v9.72h5.88c1.66,0,2.97-.43,3.92-1.29,.96-.86,1.44-2.04,1.44-3.55,0-3.25-1.77-4.88-5.31-4.88h-5.94Z"/><path class="h" d="M385.16,91.72h-11.71v9.57h13.6v2.91h-17.16v-27.02h16.98v2.91h-13.42v8.7h11.71v2.91Z"/><path class="h" d="M406.76,91.72h-11.71v9.57h13.6v2.91h-17.16v-27.02h16.98v2.91h-13.42v8.7h11.71v2.91Z"/><path class="h" d="M416.67,101.29h12.8v2.91h-16.38v-27.02h3.58v24.1Z"/><path class="h" d="M433.53,104.21v-27.02h7.63c2.35,0,4.43,.52,6.23,1.56,1.81,1.04,3.2,2.52,4.18,4.43s1.48,4.12,1.49,6.61v1.73c0,2.55-.49,4.78-1.48,6.7s-2.39,3.39-4.21,4.42-3.95,1.55-6.37,1.58h-7.48Zm3.56-24.1v21.19h3.75c2.75,0,4.88-.85,6.41-2.56s2.29-4.14,2.29-7.3v-1.58c0-3.07-.72-5.46-2.16-7.16-1.44-1.7-3.49-2.57-6.13-2.59h-4.16Z"/><path class="h" d="M473.72,91.72h-11.71v9.57h13.6v2.91h-17.16v-27.02h16.98v2.91h-13.42v8.7h11.71v2.91Z"/><path class="h" d="M500.81,104.21h-3.58l-13.6-20.82v20.82h-3.58v-27.02h3.58l13.64,20.91v-20.91h3.54v27.02Z"/><path class="h" d="M507.14,104.21v-27.02h7.63c2.35,0,4.43,.52,6.23,1.56,1.81,1.04,3.2,2.52,4.18,4.43,.98,1.92,1.48,4.12,1.49,6.61v1.73c0,2.55-.49,4.78-1.47,6.7-.98,1.92-2.39,3.39-4.21,4.42-1.82,1.03-3.95,1.55-6.37,1.58h-7.48Zm3.56-24.1v21.19h3.75c2.75,0,4.88-.85,6.41-2.56,1.53-1.71,2.29-4.14,2.29-7.3v-1.58c0-3.07-.72-5.46-2.16-7.16-1.44-1.7-3.49-2.57-6.13-2.59h-4.16Z"/><path class="h" d="M547.33,91.72h-11.71v9.57h13.6v2.91h-17.16v-27.02h16.98v2.91h-13.42v8.7h11.71v2.91Z"/><path class="h" d="M569.93,91.65l-3.3,3.43v9.13h-3.56v-27.02h3.56v13.36l12-13.36h4.3l-10.63,11.93,11.47,15.08h-4.27l-9.57-12.56Z"/><path class="h" d="M605.91,77.19v18.37c-.01,2.55-.81,4.63-2.4,6.25-1.59,1.62-3.75,2.53-6.47,2.73l-.95,.04c-2.96,0-5.31-.8-7.07-2.39-1.76-1.6-2.65-3.79-2.67-6.59v-18.41h3.53v18.29c0,1.96,.54,3.47,1.61,4.55,1.08,1.08,2.61,1.62,4.6,1.62s3.56-.54,4.63-1.61c1.07-1.08,1.6-2.59,1.6-4.55v-18.31h3.58Z"/><path class="h" d="M632.29,104.21h-3.58l-13.6-20.82v20.82h-3.58v-27.02h3.58l13.64,20.91v-20.91h3.54v27.02Z"/><path class="h" d="M646.58,92.17c-3.06-.88-5.28-1.96-6.67-3.24-1.39-1.28-2.09-2.86-2.09-4.74,0-2.13,.85-3.89,2.55-5.28,1.7-1.39,3.91-2.09,6.63-2.09,1.86,0,3.51,.36,4.96,1.08,1.45,.72,2.58,1.71,3.38,2.97,.8,1.26,1.2,2.64,1.2,4.14h-3.58c0-1.64-.52-2.93-1.56-3.86-1.04-.94-2.5-1.41-4.4-1.41-1.76,0-3.13,.39-4.11,1.16-.98,.77-1.47,1.85-1.47,3.22,0,1.1,.47,2.04,1.4,2.8,.93,.76,2.52,1.46,4.77,2.09,2.24,.63,4,1.33,5.27,2.09,1.27,.76,2.21,1.65,2.82,2.66,.61,1.01,.92,2.21,.92,3.58,0,2.19-.85,3.94-2.56,5.26-1.71,1.32-3.99,1.98-6.85,1.98-1.86,0-3.59-.36-5.2-1.07-1.61-.71-2.85-1.69-3.72-2.92-.87-1.24-1.31-2.64-1.31-4.21h3.58c0,1.63,.6,2.92,1.81,3.87,1.21,.95,2.82,1.42,4.83,1.42,1.88,0,3.32-.38,4.32-1.15s1.5-1.81,1.5-3.14-.46-2.35-1.39-3.07c-.93-.72-2.61-1.44-5.05-2.14Z"/><path class="h" d="M679.83,80.11h-8.68v24.1h-3.54v-24.1h-8.67v-2.91h20.89v2.91Z"/><path class="h" d="M699.11,91.72h-11.71v9.57h13.6v2.91h-17.16v-27.02h16.98v2.91h-13.42v8.7h11.71v2.91Z"/><path class="h" d="M726.2,104.21h-3.58l-13.6-20.82v20.82h-3.58v-27.02h3.58l13.64,20.91v-20.91h3.54v27.02Z"/><path class="h" d="M248.56,122.79h3.58v19.13c0,2.58-.78,4.61-2.33,6.07-1.55,1.46-3.62,2.19-6.21,2.19s-4.77-.69-6.27-2.06c-1.5-1.37-2.25-3.3-2.25-5.77h3.56c0,1.55,.42,2.75,1.27,3.62,.85,.87,2.07,1.3,3.68,1.3,1.47,0,2.66-.46,3.57-1.39s1.37-2.23,1.38-3.9v-19.19Z"/><path class="h" d="M272.72,142.74h-11.32l-2.54,7.07h-3.67l10.32-27.02h3.12l10.33,27.02h-3.66l-2.58-7.07Zm-10.24-2.91h9.18l-4.6-12.63-4.58,12.63Z"/><path class="h" d="M303.35,149.81h-3.58l-13.6-20.82v20.82h-3.58v-27.02h3.58l13.64,20.91v-20.91h3.54v27.02Z"/><path class="h" d="M322.65,139.23v10.58h-3.56v-27.02h9.96c2.96,0,5.27,.76,6.95,2.26,1.68,1.51,2.51,3.51,2.51,5.99,0,2.62-.82,4.64-2.46,6.06-1.64,1.42-3.99,2.12-7.04,2.12h-6.36Zm0-2.91h6.4c1.9,0,3.36-.45,4.38-1.35,1.01-.9,1.52-2.2,1.52-3.89s-.51-2.9-1.52-3.87c-1.01-.97-2.41-1.47-4.17-1.5h-6.61v10.61Z"/><path class="h" d="M363.84,137.17c0,2.65-.45,4.96-1.34,6.93s-2.15,3.48-3.79,4.52-3.54,1.56-5.71,1.56-4.01-.52-5.66-1.57c-1.65-1.04-2.92-2.54-3.83-4.47s-1.38-4.18-1.4-6.73v-1.95c0-2.6,.45-4.89,1.35-6.88,.9-1.99,2.18-3.52,3.83-4.57s3.54-1.59,5.67-1.59,4.07,.52,5.72,1.57,2.92,2.56,3.81,4.55,1.34,4.3,1.34,6.93v1.71Zm-3.54-1.74c0-3.2-.64-5.66-1.93-7.38-1.29-1.71-3.09-2.57-5.4-2.57s-4.02,.86-5.32,2.57c-1.29,1.71-1.96,4.09-1.99,7.13v1.99c0,3.1,.65,5.54,1.96,7.32,1.3,1.78,3.1,2.66,5.39,2.66s4.08-.84,5.34-2.51c1.26-1.68,1.91-4.08,1.95-7.21v-2Z"/><path class="h" d="M379.09,138.88h-6.35v10.93h-3.58v-27.02h8.94c3.04,0,5.38,.69,7.02,2.08,1.64,1.39,2.46,3.4,2.46,6.05,0,1.68-.46,3.15-1.36,4.4-.91,1.25-2.17,2.18-3.79,2.8l6.35,11.47v.22h-3.82l-5.86-10.93Zm-6.35-2.91h5.47c1.77,0,3.18-.46,4.22-1.38s1.57-2.14,1.57-3.68c0-1.67-.5-2.96-1.49-3.85-1-.89-2.43-1.34-4.31-1.36h-5.46v10.26Z"/><path class="h" d="M409.76,125.71h-8.68v24.1h-3.54v-24.1h-8.67v-2.91h20.89v2.91Z"/><path class="h" d="M427.22,142.74h-11.32l-2.54,7.07h-3.67l10.32-27.02h3.12l10.33,27.02h-3.66l-2.58-7.07Zm-10.24-2.91h9.18l-4.6-12.63-4.58,12.63Z"/><path class="h" d="M452.37,137.32h-11.71v9.57h13.6v2.91h-17.16v-27.02h16.98v2.91h-13.42v8.7h11.71v2.91Z"/><path class="h" d="M462.27,146.9h12.8v2.91h-16.38v-27.02h3.58v24.1Z"/><path class="h" d="M487.1,137.77c-3.06-.88-5.28-1.96-6.67-3.24-1.39-1.28-2.09-2.86-2.09-4.74,0-2.13,.85-3.89,2.55-5.28,1.7-1.39,3.91-2.09,6.63-2.09,1.86,0,3.51,.36,4.96,1.08,1.45,.72,2.58,1.71,3.38,2.97,.8,1.26,1.2,2.64,1.2,4.14h-3.58c0-1.64-.52-2.93-1.56-3.86-1.04-.94-2.5-1.41-4.4-1.41-1.76,0-3.13,.39-4.11,1.16-.98,.77-1.47,1.85-1.47,3.22,0,1.1,.47,2.04,1.4,2.8,.93,.76,2.52,1.46,4.77,2.09,2.24,.63,4,1.33,5.27,2.09,1.27,.76,2.21,1.65,2.82,2.66,.61,1.01,.92,2.21,.92,3.58,0,2.19-.85,3.94-2.56,5.26s-3.99,1.98-6.85,1.98c-1.86,0-3.59-.36-5.2-1.07-1.61-.71-2.85-1.69-3.72-2.92-.87-1.24-1.31-2.64-1.31-4.21h3.58c0,1.63,.6,2.92,1.81,3.87,1.21,.95,2.82,1.42,4.83,1.42,1.88,0,3.32-.38,4.32-1.15,1-.77,1.5-1.81,1.5-3.14s-.46-2.35-1.39-3.07-2.61-1.44-5.05-2.14Z"/></g><path class="h" d="M197.98,18.59c.06-1.4,.63-1.69,1.68-1.26,.87,.36,2.12,.7,2.69,.54,.92-.27,1.37,0,2.03,.35,.58,.31,.69,.72,.62,1.28-.35,2.81-.9,5.6-.97,8.44-.03,1.11,.09,2.22,.03,3.33-.26,4.62-.61,9.24-.82,13.86-.1,2.31-.26,4.62-.4,6.93-.1,1.67-.07,3.35-.29,5.04-.27,2.07,.07,4.21,.19,6.33,.16,2.87,.15,5.75,0,8.62-.13,2.47-.25,4.95-.29,7.42-.12,6.95-.16,13.9-.31,20.85-.2,9.1-.48,18.2-.75,27.31-.17,5.51-.39,11.01-.42,16.53-.03,5.82-.6,11.62-.98,17.43-.02,.36-.11,.71-.21,1.06-.22,.81-.78,1.2-1.6,1.13-.78-.07-1.24-.56-1.32-1.32-.17-1.67-.35-3.34-.45-5.01-.3-5.5-.7-11-.81-16.51-.15-7.91-.25-15.82-.51-23.72-.21-6.15-.31-12.3-.48-18.45-.15-5.55-.28-11.1-.11-16.65,.2-6.47-.01-12.94,.41-19.41,.05-.72,.07-1.44,.23-2.14,.47-2.19,.07-4.37-.05-6.55-.13-2.29-.19-4.59-.38-6.89-.31-3.82-.64-7.63-1.04-11.44-.21-2.01-.37-4.16,.13-6.07,.26-1,.33-1.79,.17-2.73-.18-1.02-.27-2.06-.37-3.09-.13-1.27-.24-2.54-.37-3.81-.1-1.03,.22-1.54,1.31-2,.94-.4,1.92,.63,2.71-.35,.11-.13,.5,.41,.73,.97Zm.58,10.89c-.73,0-1.13,0-1.53,0-2.42-.03-2.39-.03-2.29,2.36,.03,.76,.24,1.04,1.04,.97,1.99-.17,3.99,.07,5.98-.21,.68-.1,1.03,.28,1.03,.86,0,.63-.6,.56-1.01,.53-1.48-.08-2.94,.03-4.41,.18-.66,.07-1.39,.3-2.01-.02-.77-.4-.84,.06-.81,.57,.05,.79,.29,1.57,.32,2.36,.14,4.35,1.02,8.63,1.37,12.96,.05,.61,.35,.87,1.04,.81,1.11-.1,2.24-.12,3.35-.05,.87,.05,1.21-.22,1.28-1.1,.27-3.62,.62-7.24,.89-10.86,.2-2.58,.3-5.17,.48-7.76,.06-.93-.19-1.37-1.23-1.42-1.27-.06-2.54-.23-3.49-.19Zm.07,132.68c.12-.62,.22-1.11,.31-1.6,.32-1.61-.27-3.19-.65-4.63-.61-2.25-.36-4.51-.71-6.74-.29-1.83,.34-3.67,.15-5.49-.39-3.57-.28-7.16-.36-10.74-.09-4.31,0-8.62-.16-12.92-.3-8.33-.74-16.66-1.06-24.99-.15-4.02-.18-8.05-.23-12.08-.03-2.64-.11-5.28,.03-7.91,.27-4.78-.02-9.57,.11-14.35,.01,1.31-.32,2.59-.32,3.89-.02,5.23-.1,10.45-.22,15.68-.13,5.15-.1,10.3,.09,15.45,.14,3.82,.26,7.65,.17,11.48-.08,3.15,.26,6.3,.36,9.45,.32,9.46,.27,18.92,.98,28.37,.35,4.7,.5,9.41,.8,14.11,.06,.96,.06,1.98,.72,3.03Zm.33-108.93h0c.76-.01,1.51-.03,2.27,0,.52,.02,.74-.28,.76-.72,.02-.4-.12-.91-.57-.92-1.59-.04-3.18-.01-4.77,.05-.53,.02-.68,.49-.66,.97,.03,.52,.36,.64,.83,.63,.72-.02,1.43,0,2.15,0Zm-.67,1.03v-.11c-.28-.03-.58-.15-.82-.07-.5,.17-1.24,.2-1.22,.92,.02,.78,.74,.54,1.21,.56,1.19,.07,2.39-.13,3.57,.12,.43,.09,.77-.05,.73-.51-.04-.37,.09-.93-.62-.92-.95,.02-1.9,0-2.85,0Z"/></g></g></svg>