<?xml version="1.0" encoding="UTF-8"?><svg id="a" xmlns="http://www.w3.org/2000/svg" width="500" height="500" viewBox="0 0 500 500"><defs><style>.b{fill:#6b6c6f;stroke:#58595b;stroke-miterlimit:10;}</style></defs><polygon class="b" points="5.06 292.39 0 309.68 0 291.96 5.06 292.39"/><polygon class="b" points=".05 107.28 0 107.27 0 52.21 15.88 58.68 .05 107.28"/><polygon class="b" points="8.12 281.76 0 281.09 0 228.46 20.78 238.47 8.12 281.76"/><polygon class="b" points="2.1 209.49 0 208.48 0 124.86 3.43 114.32 25.58 126.78 2.1 209.49"/><polygon class="b" points="17.51 53.47 0 46.31 0 0 34.96 0 17.51 53.47"/><polygon class="b" points="5.36 487.6 37.83 482.09 36.51 500 6.28 500 5.36 487.6"/><polygon class="b" points="42.12 496.69 44.07 500 41.9 500 42.12 496.69"/><polygon class="b" points="6.07 327.81 30.67 243.27 55.48 255.22 37.31 331.08 6.07 327.81"/><polygon class="b" points="5.16 109.01 40.69 0 61.61 0 27.11 121.37 5.16 109.01"/><polygon class="b" points="71.11 354.25 0 352.25 0 348.21 4.44 333.12 73.77 340.37 71.11 354.25"/><polygon class="b" points="74.07 391.52 0 397.85 0 370.37 70.91 372.43 74.07 391.52"/><polygon class="b" points="79.49 424.5 1.28 432.98 0 415.21 0 403.2 74.89 396.83 79.49 424.5"/><polygon class="b" points="26.49 163.54 80.82 188.45 63.87 239.19 12.1 214.28 26.49 163.54"/><polygon class="b" points="86.74 468.2 4.95 482.19 2.1 443.9 81.22 435.33 86.74 468.2"/><polygon class="b" points="74.79 334.96 42.73 331.59 60.5 257.57 87.14 270.43 74.79 334.96"/><polygon class="b" points="58.45 51.12 87.14 59.7 57.74 139.75 35.89 130.66 58.45 51.12"/><polygon class="b" points="32.82 141.18 88.77 164.56 82.55 183.24 27.93 158.23 32.82 141.18"/><polygon class="b" points="87.66 473.61 92.07 500 50.41 500 42.84 487.09 43.25 481.17 87.66 473.61"/><polygon class="b" points="61.42 40.71 72.24 2.63 93.07 9.26 84.18 47.45 61.42 40.71"/><polygon class="b" points="94.29 3.95 82.01 0 95.21 0 94.29 3.95"/><polygon class="b" points="77.24 102.08 106.64 111.16 92.25 154.25 62.64 141.89 77.24 102.08"/><path class="b" d="M92.35,61.23l28.28,8.37-12.15,36.35c-8.06-2.45-23.07-7.15-29.19-9.09l13.06-35.63Z"/><polygon class="b" points="99.4 167.01 124.11 169.97 118.49 206.62 92.25 188.65 99.4 167.01"/><path class="b" d="M117.06,114.52c5.51,1.94,15.11,5.31,26.44,9.3l-17.86,40.94-24.3-2.85,15.72-47.39Z"/><polygon class="b" points="97.25 275.34 145.54 298.61 132.99 322.1 90.1 312.81 97.25 275.34"/><polygon class="b" points="73.68 243.89 90.42 193.96 151.58 235.93 98.9 256.04 73.68 243.89"/><path class="b" d="M165.66,416.95c-8.19,25.04-20.08,55.6-35.6,83.05h-26.97l-14.82-88.97,77.39,5.92Z"/><polygon class="b" points="82.14 354.56 89.08 318.22 166.06 334.86 163.31 356.91 82.14 354.56"/><polygon class="b" points="130.95 72.67 172.92 85.12 162.81 124.74 118.69 109.32 130.95 72.67"/><polygon class="b" points="167.7 329.65 138.5 323.32 150.44 301.07 177.19 313.93 167.7 329.65"/><path class="b" d="M87.35,405.41l-5.41-32.78,95.77,2.76c-2.04,8.27-5.52,20.93-10.31,36.14l-80.05-6.12Z"/><polygon class="b" points="157.09 284.12 112.37 262.58 160.25 244.3 178.02 275.44 157.09 284.12"/><polygon class="b" points="89.39 48.98 100.8 0 184.13 0 191.8 30.29 151.16 67.35 89.39 48.98"/><path class="b" d="M194.86,479.94l-7.84,20.06h-44.39c5.96-11.02,11.39-22.31,16.29-33.84l35.94,13.78Z"/><path class="b" d="M148.6,125.55c14.81,5.21,31.76,11.13,46.36,16.24l-16.43,83.82-20.83,7.97-34.31-23.59,6.43-41.66,18.78-42.78Z"/><path class="b" d="M161.07,461.05c2.24-5.42,4.39-10.72,6.33-16.03l37.67,8.88-8.17,20.83-35.83-13.68Z"/><polygon class="b" points="157.29 69.19 193.22 36.21 205.17 83.39 157.29 69.19"/><polygon class="b" points="212.01 358.23 168.72 357.01 171.68 333.63 182.19 316.37 216.5 332.91 212.01 358.23"/><polygon class="b" points="208.13 95.74 220.59 145.06 167.91 126.57 178.12 86.76 208.13 95.74"/><polygon class="b" points="183.02 273.3 165.36 242.26 212.53 224.19 221.72 257.17 183.02 273.3"/><polygon class="b" points="192.93 301.47 163.62 287.28 223.24 262.47 230.3 287.79 192.93 301.47"/><path class="b" d="M210.49,444l-39.31-9.19c6.89-19.39,12.79-39.12,17.66-59.11l22.46,.61,22.06,37.57-22.87,30.12Z"/><polygon class="b" points="207.32 18.14 203.54 3.34 208.18 0 234.29 0 207.32 18.14"/><path class="b" d="M222.33,151.29l13.27,52.48-51.05,19.5,15.62-79.74c8.88,3.06,16.64,5.82,22.16,7.76Z"/><polygon class="b" points="243.45 462.89 229.97 500 192.84 500 210.37 455.13 243.45 462.89"/><path class="b" d="M243.87,352.62c-.09,2.19,.08,4.39,.51,6.54l-26.76-.72,4.09-23.07,22.67,10.92c-.33,2.1-.5,4.21-.51,6.33Z"/><polygon class="b" points="235.3 285.75 217.63 222.24 238.15 214.38 254.39 278.81 235.3 285.75"/><polygon class="b" points="243.46 56.23 254.79 96.66 225.19 89.1 220.29 69.6 243.46 56.23"/><polygon class="b" points="247.24 452.68 216.2 445.43 237.44 417.45 257.04 425.52 247.24 452.68"/><path class="b" d="M237.03,409.29l-19.3-32.78,34.92,1.02c1.44,1.79,3.05,3.43,4.8,4.91l-20.42,26.85Z"/><path class="b" d="M208.75,23.76l29.1-19.51c4.79,6.44,20.31,27.06,25.62,34.21l-44.51,25.63-10.21-40.33Z"/><path class="b" d="M264.18,318.01c-5.11,2.85-9.54,6.79-12.96,11.54l-51.56-24.81,56.05-20.53,8.47,33.8Z"/><path class="b" d="M258.97,420.42l-18.07-7.46,20.74-27.25c2.63,1.75,5.48,3.16,8.47,4.18l-11.14,30.53Z"/><polygon class="b" points="283.08 425.22 274.73 500 241.52 500 268.07 427.06 283.08 425.22"/><polygon class="b" points="228.25 101.05 288.69 116.47 273.07 137.09 239.68 146.59 228.25 101.05"/><path class="b" d="M283.38,374.16c-11.9,0-21.55-9.64-21.55-21.54h0c0-5.94,2.41-11.33,6.31-15.22,3.89-3.9,9.28-6.32,15.23-6.32,11.89,0,21.54,9.64,21.54,21.54s-9.65,21.54-21.54,21.54Z"/><polygon class="b" points="299.51 2.62 296.42 0 301.36 0 299.51 2.62"/><polygon class="b" points="261.33 231.95 241.11 151.9 273.17 142.81 303.91 218.68 261.33 231.95"/><path class="b" d="M308.8,416.44l-38.59,5,10.62-29.21c.84,.09,1.7,.13,2.55,.11,4.27,0,8.51-.69,12.56-2.04l12.86,26.14Z"/><path class="b" d="M281.75,313l-19.2-75.86,43.29-13.48,9.7,24-21.34,66.87c-3.51-1.02-7.16-1.54-10.82-1.53h-1.63Z"/><polygon class="b" points="319.32 37.45 291.96 105.96 261.02 98.09 248.36 53.38 268.37 41.83 319.32 37.45"/><polygon class="b" points="307.98 465.14 320.23 500 280.24 500 283.38 471.88 307.98 465.14"/><polygon class="b" points="268.78 36.32 242.34 1.09 243.96 0 288.07 0 322.49 29.27 321.47 31.83 268.78 36.32"/><polygon class="b" points="327.28 454.21 283.99 466.06 288.59 424.5 311.26 421.54 327.28 454.21"/><polygon class="b" points="324.63 23.96 303.7 6.2 308.08 0 334.16 0 324.63 23.96"/><polygon class="b" points="315.75 75.73 340.15 83.9 331.37 116.26 302.58 108.91 315.75 75.73"/><path class="b" d="M329.73,459.22l20.01,40.78h-23.8c-4.89-13.83-10.56-30-12.75-36.29l16.54-4.49Z"/><polygon class="b" points="318.21 239.6 290.03 169.97 350.37 139.24 318.21 239.6"/><polygon class="b" points="351.58 132.6 287.98 164.97 277.87 139.95 294.51 118 351.58 132.6"/><path class="b" d="M328.1,414.7l-16.75-34.1h.01c5.75-5.71,9.6-13.06,11.02-21.03l31.04,5.31-25.32,49.82Z"/><polygon class="b" points="345.25 85.53 365.37 92.27 355.67 122.39 336.58 117.49 345.25 85.53"/><polygon class="b" points="317.69 70.62 337.9 19.99 382.83 37.74 367 87.05 317.69 70.62"/><polygon class="b" points="387.01 470.55 359.75 479.13 350.26 459.83 381.91 450.74 387.01 470.55"/><path class="b" d="M322.79,348.64c-.5-5.04-1.99-9.94-4.4-14.4l69.23-45.53-12.15,68.91-52.68-8.98Z"/><path class="b" d="M388.95,281.36l-73.41,48.19c-1.57-2.17-3.35-4.19-5.31-6.02l19.2-59.73,60.44,12.25-.92,5.31Z"/><polygon class="b" points="384.56 32.54 339.95 14.88 345.89 0 393.18 0 394.77 .58 384.56 32.54"/><polygon class="b" points="391.82 265.34 332.81 253.39 350.06 199.58 401.73 209.49 391.82 265.34"/><polygon class="b" points="398.03 391.22 349.64 384.27 358.93 365.9 402.12 373.14 398.03 391.22"/><path class="b" d="M414.07,200.8c-25.83-5-48.5-9.29-60.65-11.64l13.38-41.86,51.05,46.25-3.78,7.25Z"/><polygon class="b" points="384.77 91.04 430.31 99.21 392.12 162.92 368.64 141.58 384.77 91.04"/><polygon class="b" points="362.2 484.13 434.29 461.77 430.3 489.95 395.38 500 369.96 500 362.2 484.13"/><polygon class="b" points="387.12 449.31 438.07 434.71 435.1 455.74 392.22 469.02 387.12 449.31"/><polygon class="b" points="442.66 403.16 439.8 422.97 345.46 449.92 331.17 420.83 347.1 389.38 442.66 403.16"/><polygon class="b" points="407.43 374.17 445.81 380.6 443.37 397.75 403.45 392.03 407.43 374.17"/><polygon class="b" points="390.07 337.41 450.41 348.74 447.35 369.88 386.19 359.46 390.07 337.41"/><path class="b" d="M390.38,73.68L412.13,5.79l38.8,9.19c-3.88,17.86-7.46,34-9.09,41.76l-33.89,20.11-17.57-3.17Z"/><polygon class="b" points="451.23 343.43 390.99 332 397.01 298.21 453.48 327.41 451.23 343.43"/><path class="b" d="M452.06,9.67L413.77,.68l.22-.68h40.21c-.71,3.23-1.43,6.46-2.14,9.67Z"/><polygon class="b" points="454.29 321.69 398.04 292.59 400.59 278.19 458.79 289.93 454.29 321.69"/><polygon class="b" points="436.02 100.23 463.59 105.24 420.3 188.55 396.2 166.6 436.02 100.23"/><polygon class="b" points="464.01 0 458.69 4.97 459.78 0 464.01 0"/><polygon class="b" points="460.33 279.22 402.43 267.48 412.34 211.52 468.49 222.35 460.33 279.22"/><polygon class="b" points="448.27 52.76 455.62 18.96 471.86 38.77 448.27 52.76"/><polygon class="b" points="441.64 486.58 449.19 433.38 475.74 437.06 469.51 478.51 441.64 486.58"/><path class="b" d="M478.09,107.79l-17.16,102c-13.78-2.65-27.87-5.41-41.35-7.96l49.73-95.67,8.78,1.63Z"/><path class="b" d="M441.02,498.02c22.16-6.43,44.01-12.76,57.08-16.64l-3.46,18.62h-53.36l-.26-1.98Z"/><polygon class="b" points="500 0 500 22.09 476.56 36.01 457.87 13.14 471.98 0 500 0"/><polygon class="b" points="483.5 44.48 500 34.66 500 63.12 499.22 63.58 483.5 44.48"/><polygon class="b" points="478.8 47.34 500 73.32 500 93.33 424.28 79.71 478.8 47.34"/><polygon class="b" points="483.5 108.8 500 111.76 500 175.92 473.29 169.55 483.5 108.8"/><path class="b" d="M472.37,174.86l27.63,6.63v35.87c-10.51-2.03-21.93-4.24-33.65-6.46l6.02-36.04Z"/><polygon class="b" points="479.1 224.38 500 228.39 500 269.48 495.95 286.35 470.93 281.25 479.1 224.38"/><polygon class="b" points="469.51 292.08 500 298.23 500 332.43 464.71 325.47 469.51 292.08"/><polygon class="b" points="463.89 330.77 500 337.87 500 378.8 458.07 371.61 463.89 330.77"/><polygon class="b" points="456.54 382.44 500 389.86 500 429.29 450.83 422.56 456.54 382.44"/><polygon class="b" points="481.25 437.57 500 440.16 500 469.53 475.33 476.67 481.25 437.57"/></svg>